<svg width="512.001" height="512.001" xmlns="http://www.w3.org/2000/svg">

 <g>
  <title>background</title>
  <rect fill="none" id="canvas_background" height="402" width="582" y="-1" x="-1"/>
 </g>
 <g>
  <title>Layer 1</title>
  <path transform="rotate(46 213.119140625,257.87969970703125) " stroke="null" id="svg_1" fill="#FC3842" d="m315.816,226.213l-123.452,-123.451l-131.805,278.459c-0.12,0.262 -7.049,17.344 2.414,26.807c9.497,9.497 26.679,2.473 26.812,2.412l278.453,-131.802l-34.013,-34.015"/>
  <path transform="rotate(46 260.109375,316.62451171875006) " id="svg_2" fill="#FC5162" d="m236.646,227.043c-39.676,49.46 -60.588,112.561 -56.056,179.163l159.649,-75.567c-41.39,-41.393 -27.567,-27.57 -103.593,-103.596z"/>
  <path transform="rotate(45 158.7320556640625,197.87261962890625) " id="svg_3" fill="#EF2235" d="m103.433,352.62c1.727,-11.233 101.249,-215.731 134.028,-286.76l-23.097,-23.098l-131.805,278.459c-0.901,1.97 -6.896,19.002 3.375,27.688c6.803,5.79 16.503,3.711 17.499,3.711z"/>
  <circle id="svg_4" fill="#FFCA54" r="15.049" cy="254.249" cx="128.338"/>
  <circle id="svg_5" fill="#00CDB3" r="15.049" cy="226.953" cx="208.118"/>
  <path transform="rotate(45 305.5750122070312,257.4429931640625) " id="svg_6" fill="#FFCA54" d="m377.24,361.638l32.546,-15.132c-0.998,-0.998 -191.687,-191.687 -193.258,-193.258l-15.164,32.513"/>
  <path stroke="null" transform="rotate(47 306.71600341796875,306.3909912109375) " id="svg_7" fill="#FCD27C" d="m238.646,267.043l103.594,103.596l32.546,-15.132c-3.144,-3.144 -111.412,-111.411 -113.365,-113.364c-8.122,7.79 -15.726,16.112 -22.775,24.9z"/>
  <path id="svg_11" fill="#F9B24B" d="m461.706,114.617l-17.84,37.686c8.791,10.064 24.01,10.316 33.2,1.126c14.096,-14.095 4.451,-38.18 -15.36,-38.812z"/>
  <circle id="svg_12" fill="#FFCA54" r="19.450001" cy="308.423" cx="231.575"/>
  <path transform="rotate(58 464.3764953613282,398.05349731445307) " id="svg_13" fill="#F9B24B" d="m468.461,425.859l14.926,-32.003c-0.176,-0.403 -0.334,-0.813 -0.477,-1.226c-6.711,-6.709 -2.178,-2.179 -22.381,-22.382l-0.169,0.364l0,0l-14.994,32.15l23.095,23.097z"/>
  <path transform="rotate(31 459.16043090820324,212.23269653320315) " id="svg_14" fill="#F9B732" d="m389.757,272.741c-1.382,-4.314 0.995,-8.932 5.31,-10.313c12.644,-4.05 42.295,-17.132 44.549,-51.058c1.335,-20.125 8.711,-36.077 21.922,-47.412c24.013,-20.603 58.469,-17.879 59.925,-17.753c4.512,0.391 7.854,4.366 7.463,8.88c-0.39,4.508 -4.352,7.848 -8.861,7.466l0,0c-0.289,-0.024 -29.214,-2.196 -47.919,13.923c-9.694,8.353 -15.13,20.46 -16.162,35.983c-2.057,30.965 -22.436,54.872 -55.915,65.595c-4.297,1.378 -8.927,-0.983 -10.312,-5.311z"/>
  <g id="svg_15">
   <circle id="svg_16" fill="#FF4B4E" r="10.651" cy="303.759" cx="490.661"/>
   <circle id="svg_17" fill="#FF4B4E" r="10.651" cy="178.687" cx="437.576"/>
  </g>
  <g transform="rotate(25 408.50451660156244,243.01449584960946) " id="svg_18">
   <path id="svg_19" fill="#00CDB3" d="m470.145,373.793c-0.143,-4.528 3.412,-8.314 7.941,-8.456l16.341,-0.514c4.53,-0.171 8.313,3.412 8.455,7.941c0.143,4.528 -3.412,8.314 -7.942,8.456l-16.34,0.514c-4.486,0.148 -8.313,-3.381 -8.455,-7.941z"/>
   <path id="svg_20" fill="#00CDB3" d="m322.066,137.045c-4.527,-0.142 -8.082,-3.928 -7.941,-8.456l0.514,-16.34c0.143,-4.528 3.921,-8.102 8.457,-7.941c4.528,0.142 8.083,3.928 7.941,8.457l-0.514,16.34c-0.145,4.617 -4.052,8.108 -8.457,7.94z"/>
  </g>
  <path id="svg_21" fill="#57BAE5" d="m363.849,192.846c-0.142,-4.528 3.412,-8.314 7.941,-8.457l16.339,-0.514c4.525,-0.157 8.314,3.412 8.456,7.941c0.143,4.528 -3.412,8.314 -7.941,8.456l-16.34,0.514c-4.421,0.17 -8.311,-3.34 -8.455,-7.94z"/>
  <g transform="rotate(45 481.83648681640625,222.58601379394528) " id="svg_22">
   <path id="svg_23" fill="#F9B732" d="m614.224,273.832c-40.799,-7.206 -53.719,19.572 -63.151,39.126c-9.385,19.451 -14.554,30.169 -38.63,19.993c-22.344,-9.441 -40.982,-10.588 -55.403,-3.41c-11.499,5.724 -15.721,14.718 -16.166,15.724c-2.396,5.439 1.616,11.512 7.502,11.512c3.152,0 6.159,-1.827 7.511,-4.896c0.093,-0.211 9.76,-20.891 50.171,-3.819c37.298,15.763 49.641,-6.94 59.79,-27.976c9.473,-19.636 16.953,-35.147 45.522,-30.098c4.464,0.793 8.717,-2.189 9.505,-6.651c0.787,-4.461 -2.191,-8.716 -6.651,-9.505z"/>
   <path id="svg_24" fill="#F9B732" d="m419.665,82.129c-4.461,0.788 -7.439,5.044 -6.65,9.505c8.07,45.69 -39.284,39.371 -57.439,64.514c-7.587,10.51 -7.795,23.855 -0.636,40.798c16.568,39.209 -2.659,49.587 -3.9,50.207c-0.895,0.39 -9.029,4.132 -6.229,10.379c3.962,8.839 12.927,4.597 12.927,4.597c9.269,-4.085 32.459,-23.889 12.313,-71.569c-10.174,-24.075 -0.092,-28.939 19.992,-38.629c19.554,-9.433 46.333,-22.353 39.126,-63.151c-0.787,-4.461 -5.041,-7.433 -9.504,-6.651z"/>
  </g>
  <path transform="rotate(46 324.96618652343756,261.03649902343744) " id="svg_25" fill="#57BAE5" d="m429.062,341.292c-17.685,-17.685 -166.378,-166.371 -184.351,-184.351c-6.583,-6.582 -17.256,-6.582 -23.84,0c-6.583,6.583 -6.583,17.256 0,23.84l184.352,184.351c6.583,6.582 17.255,6.582 23.84,0c6.581,-6.583 6.581,-17.257 -0.001,-23.84z"/>
  <path transform="rotate(46 323.15625000000006,318.1762390136719) " id="svg_26" fill="#70D1F2" d="m363.222,381.13c6.583,6.582 17.255,6.582 23.84,0c6.582,-6.581 6.582,-17.255 0,-23.84l-107.006,-107.004c-9.059,6.748 -17.653,14.084 -25.742,21.937l108.908,108.907z"/>
  <path id="svg_27" fill="#34A9D1" d="m362.358,370.612l0,0c1.666,3.813 1.641,3.297 22.572,24.226l0.457,-0.981c-5.34,-12.215 4.924,-25.481 18.1,-23.38l-0.009,-0.017c0,0 5.29,0.546 1.557,-3.19l-15.323,-15.329c-6.965,-6.964 -18.497,-6.545 -24.885,1.158c-4.029,4.823 -5.028,11.675 -2.469,17.513z"/>
  <g id="svg_28"/>
  <g id="svg_29"/>
  <g id="svg_30"/>
  <g id="svg_31"/>
  <g id="svg_32"/>
  <g id="svg_33"/>
  <g id="svg_34"/>
  <g id="svg_35"/>
  <g id="svg_36"/>
  <g id="svg_37"/>
  <g id="svg_38"/>
  <g id="svg_39"/>
  <g id="svg_40"/>
  <g id="svg_41"/>
  <g id="svg_42"/>
 </g>
</svg>